<?xml version="1.0" standalone="no"?>
<!DOCTYPE svg PUBLIC "-//W3C//DTD SVG 20010904//EN"
 "http://www.w3.org/TR/2001/REC-SVG-20010904/DTD/svg10.dtd">
<svg version="1.0" xmlns="http://www.w3.org/2000/svg"
 width="1905.000000pt" height="1905.000000pt" viewBox="0 0 1905.000000 1905.000000"
 preserveAspectRatio="xMidYMid meet">
<metadata>
Created by potrace 1.14, written by Peter Selinger 2001-2017
</metadata>
<g transform="translate(0.000000,1905.000000) scale(0.100000,-0.100000)"
fill="#000000" stroke="none">
<path d="M5405 16671 l-4120 -2379 -3 -4764 -2 -4765 4117 -2377 c2265 -1308
4121 -2378 4125 -2379 4 -1 1861 1069 4128 2377 l4120 2379 -2 4765 -3 4764
-4120 2379 c-2266 1308 -4120 2379 -4120 2379 0 0 -1854 -1071 -4120 -2379z
m7853 -686 l3722 -2149 0 -4310 -1 -4311 -3725 -2150 c-2049 -1182 -3729
-2149 -3733 -2148 -5 1 -1560 898 -3457 1994 -1897 1095 -3572 2062 -3721
2148 l-273 156 0 4311 0 4310 3726 2152 c2050 1183 3730 2150 3733 2148 3 -1
1681 -969 3729 -2151z"/>
<path d="M7540 13615 l0 -2355 -2230 0 -2230 0 2 -1982 3 -1983 1452 -3 1452
-2 523 412 c288 227 1530 1207 2761 2177 l2237 1764 0 2164 0 2163 -1985 0
-1985 0 0 -2355z"/>
<path d="M9161 9288 l-2514 -1983 446 -3 447 -2 0 -2110 0 -2110 1985 0 1985
0 0 2110 0 2110 2230 0 2230 0 0 538 0 537 -2134 1445 c-1174 795 -2141 1446
-2148 1448 -7 1 -1144 -890 -2527 -1980z m2222 358 c113 -34 219 -86 307 -152
l70 -53 73 55 c517 389 1262 126 1423 -503 64 -252 11 -536 -140 -746 -50 -70
-159 -178 -226 -224 -325 -220 -747 -209 -1063 28 l-69 52 -26 -22 c-116 -94
-267 -168 -407 -198 -112 -25 -289 -21 -407 10 -438 115 -729 533 -678 975 35
305 216 570 485 709 153 78 273 104 450 99 91 -3 141 -11 208 -30z"/>
<path d="M11005 9546 c-255 -50 -460 -205 -570 -432 -53 -108 -75 -208 -75
-339 0 -140 23 -235 87 -365 40 -81 60 -109 142 -190 81 -81 111 -103 191
-143 142 -71 234 -91 395 -85 111 4 142 9 217 35 84 29 205 97 260 147 l27 24
-54 83 c-198 299 -194 712 9 999 18 25 35 50 39 57 10 16 -93 92 -185 139
-140 70 -335 99 -483 70z"/>
<path d="M12265 9550 c-127 -19 -297 -93 -384 -169 l-44 -38 37 -49 c96 -125
155 -299 163 -479 10 -220 -50 -419 -174 -582 l-26 -34 29 -25 c153 -126 313
-183 515 -184 306 0 579 173 709 451 113 243 88 558 -63 773 -173 249 -469
379 -762 336z"/>
<path d="M11732 9223 c-132 -194 -174 -439 -111 -663 20 -73 81 -201 119 -250
19 -25 19 -25 35 -5 34 44 87 146 109 213 80 234 47 485 -91 694 -14 21 -29
38 -34 38 -4 0 -16 -12 -27 -27z"/>
<path d="M12426 11251 c16 -14 3533 -2391 3539 -2391 3 0 5 540 5 1200 l0
1200 -1777 0 c-1000 0 -1773 -4 -1767 -9z"/>
</g>
</svg>
